# File created by Blade
# Date/Time:  Tue Sep 30 19:29:42 2014
#---------------------------------------------------------
:version 1.10
:name HOM
:units
  mass 1.0
  length 1.000000
  angle deg
:documentation
     Acclaim Skeleton File
:root
   axis xyz
   order TX TY TZ RX RY RZ
   position 0.000000 0.000000 0.000000
   orientation 0 0 0
:bonedata
   begin
      id 1
      name RightUpLeg_dum
      direction -1.000000 0.000000 0.000000
      length 3.766986
      axis 0.0 0.0 0.0 xyz
   end
   begin
      id 2
      name LeftUpLeg_dum
      direction 1.000000 0.000000 0.000000
      length 3.766986
      axis 0.0 0.0 0.0 xyz
   end
   begin
      id 3
      name Spine_dum
      direction 0.000000 1.000000 0.000000
      length 7.779697
      axis 0.0 0.0 0.0 xyz
   end
   begin
      id 4
      name RightUpLeg
      direction 0.000000 -1.000000 0.000000
      length 18.017682
      axis 0.0 0.0 0.0 xyz
      dof rx ry rz
   end
   begin
      id 5
      name RightLeg
      direction 0.000000 -1.000000 0.000000
      length 16.881075
      axis 0.0 0.0 0.0 xyz
      dof rx ry rz
   end
   begin
      id 6
      name RightFoot
      direction 0.000000 -0.258819 0.965926
      length 5.770812
      axis 15.0 0.0 0.0 xyz
      dof rx ry rz
   end
   begin
      id 7
      name RightToeBase
      direction 0.000000 0.000000 1.000000
      length 2.952750
      axis 0.0 0.0 0.0 xyz
      dof rx ry rz
   end
   begin
      id 8
      name LeftUpLeg
      direction 0.000000 -1.000000 0.000000
      length 18.017682
      axis 0.0 0.0 0.0 xyz
      dof rx ry rz
   end
   begin
      id 9
      name LeftLeg
      direction 0.000000 -1.000000 0.000000
      length 16.881075
      axis 0.0 0.0 0.0 xyz
      dof rx ry rz
   end
   begin
      id 10
      name LeftFoot
      direction 0.000000 -0.258819 0.965926
      length 5.770812
      axis 15.0 0.0 0.0 xyz
      dof rx ry rz
   end
   begin
      id 11
      name LeftToeBase
      direction 0.000000 0.000000 1.000000
      length 2.952750
      axis 0.0 0.0 0.0 xyz
      dof rx ry rz
   end
   begin
      id 12
      name Spine
      direction 0.000000 1.000000 0.000000
      length 0.000000
      axis 0.0 0.0 0.0 xyz
      dof rx ry rz
   end
   begin
      id 13
      name Spine_dum1
      direction 0.000000 1.000000 0.000000
      length 10.941760
      axis 0.0 0.0 0.0 xyz
   end
   begin
      id 14
      name Spine_dum2
      direction 0.000000 1.000000 0.000000
      length 10.941760
      axis 0.0 0.0 0.0 xyz
   end
   begin
      id 15
      name Spine_dum3
      direction 0.000000 1.000000 0.000000
      length 16.646042
      axis 0.0 0.0 0.0 xyz
   end
   begin
      id 16
      name RightShoulder
      direction -1.000000 0.000000 0.000000
      length 7.708937
      axis 0.0 0.0 90.0 xyz
      dof rx ry rz
   end
   begin
      id 17
      name RightArm
      direction -1.000000 0.000000 0.000000
      length 11.521345
      axis 0.0 0.0 90.0 xyz
      dof rx ry rz
   end
   begin
      id 18
      name RightForeArm
      direction -1.000000 0.000000 0.000000
      length 10.175898
      axis 0.0 0.0 90.0 xyz
      dof ry rz rx
   end
   begin
      id 19
      name RightHand
      direction -1.000000 0.000000 0.000000
      length 0.000000
      axis 0.0 0.0 90.0 xyz
      dof rx ry rz
   end
   begin
      id 20
      name RightHand_dum1
      direction -1.000000 0.000000 0.000000
      length 3.937000
      axis 0.0 0.0 90.0 xyz
   end
   begin
      id 21
      name RightHand_dum2
      direction 0.000000 0.000000 0.000000
      length 0.000000
      axis 0.0 0.0 90.0 xyz
   end
   begin
      id 22
      name RightHandThumb1
      direction 0.000000 0.000000 1.000000
      length 3.937000
      axis 0.0 0.0 90.0 xyz
      dof rx rz ry
   end
   begin
      id 23
      name LeftShoulder
      direction 1.000000 0.000000 0.000000
      length 7.708937
      axis 0.0 0.0 -90.0 xyz
      dof rx ry rz
   end
   begin
      id 24
      name LeftArm
      direction 1.000000 0.000000 0.000000
      length 11.521345
      axis 0.0 0.0 -90.0 xyz
      dof rx ry rz
   end
   begin
      id 25
      name LeftForeArm
      direction 1.000000 0.000000 0.000000
      length 10.175898
      axis 0.0 0.0 -90.0 xyz
      dof ry rz rx
   end
   begin
      id 26
      name LeftHand
      direction 1.000000 0.000000 0.000000
      length 0.000000
      axis 0.0 0.0 -90.0 xyz
      dof rx ry rz
   end
   begin
      id 27
      name LeftHand_dum1
      direction 1.000000 0.000000 0.000000
      length 3.937000
      axis 0.0 0.0 -90.0 xyz
   end
   begin
      id 28
      name LeftHand_dum2
      direction 0.000000 0.000000 0.000000
      length 0.000000
      axis 0.0 0.0 -90.0 xyz
   end
   begin
      id 29
      name LeftHandThumb1
      direction 0.000000 0.000000 1.000000
      length 3.937000
      axis 0.0 0.0 -90.0 xyz
      dof rx rz ry
   end
   begin
      id 30
      name Head
      direction 0.000000 1.000000 0.000000
      length 4.527550
      axis 0.0 0.0 0.0 xyz
      dof rx ry rz
   end
:hierarchy
   begin
      root RightUpLeg_dum LeftUpLeg_dum Spine_dum
      RightUpLeg_dum RightUpLeg
      LeftUpLeg_dum LeftUpLeg
      Spine_dum Spine
      RightUpLeg RightLeg
      RightLeg RightFoot
      RightFoot RightToeBase
      LeftUpLeg LeftLeg
      LeftLeg LeftFoot
      LeftFoot LeftToeBase
      Spine Spine_dum1 Spine_dum2 Spine_dum3
      Spine_dum1 RightShoulder
      Spine_dum2 LeftShoulder
      Spine_dum3 Head
      RightShoulder RightArm
      RightArm RightForeArm
      RightForeArm RightHand
      RightHand RightHand_dum1 RightHand_dum2
      RightHand_dum2 RightHandThumb1
      LeftShoulder LeftArm
      LeftArm LeftForeArm
      LeftForeArm LeftHand
      LeftHand LeftHand_dum1 LeftHand_dum2
      LeftHand_dum2 LeftHandThumb1
   end

# File created by Blade
# Date/Time:  Mon Sep 22 17:38:34 2014
# Frame Rate: 120.000 fps
#------------------------------------------------------
:FULLY-SPECIFIED
:DEGREES
281
root 1.457915 37.280118 5.810356 -15.426257 -6.649860 6.342236
RightUpLeg 20.749465 -0.902310 -0.893431
RightLeg -1.800323 -0.000000 0.000000
RightFoot -14.080943 -19.029736 10.593394
RightToeBase 12.519460 -0.000000 -0.000000
LeftUpLeg -33.507565 3.047926 -2.031903
LeftLeg 122.595662 -0.000000 -0.000000
LeftFoot 18.050194 10.008124 -31.721204
LeftToeBase 1.853235 -0.000000 -0.000000
Spine 21.301457 -4.972185 -3.712938
RightShoulder -0.483845 -29.817088 -9.904452
RightArm 21.120791 -18.328796 61.665292
RightForeArm 4.418865 0.000000 43.426516
RightHand -0.854389 -0.000000 -2.324347
RightHandThumb1 -24.326973 -0.000000 -32.862282
LeftShoulder -20.437285 30.024169 4.497089
LeftArm 60.969349 -33.468161 -62.200176
LeftForeArm 35.297538 -0.000000 52.387695
LeftHand -17.148704 -0.000000 -27.508511
LeftHandThumb1 -26.253704 0.000000 33.147579
Head 17.911618 19.269143 -3.258082
282
root 1.460327 37.281148 5.821433 -15.416195 -6.738247 6.374322
RightUpLeg 20.731613 -0.824757 -0.915780
RightLeg -1.777062 -0.000000 0.000000
RightFoot -14.076090 -18.975806 10.554583
RightToeBase 12.486634 -0.000000 -0.000000
LeftUpLeg -33.380538 2.946663 -1.980481
LeftLeg 121.764388 -0.000000 -0.000000
LeftFoot 17.604061 9.873095 -31.586033
LeftToeBase 1.588239 -0.000000 -0.000000
Spine 21.250533 -4.958906 -3.714792
RightShoulder -0.465023 -29.843954 -9.956997
RightArm 21.216264 -18.517143 61.513656
RightForeArm 4.462621 -0.000000 43.433357
RightHand -0.862383 -0.000000 -2.190844
RightHandThumb1 -24.326973 -0.000000 -32.862282
LeftShoulder -20.441642 30.099871 4.451139
LeftArm 60.885603 -33.547145 -62.204261
LeftForeArm 35.313227 -0.000000 52.457485
LeftHand -17.185044 -0.000000 -27.493762
LeftHandThumb1 -26.253704 0.000000 33.147579
Head 17.881284 19.364471 -3.427044
283
root 1.463852 37.283033 5.831842 -15.409604 -6.827916 6.412702
RightUpLeg 20.711387 -0.751691 -0.949085
RightLeg -1.748029 -0.000000 0.000000
RightFoot -14.085146 -18.893950 10.540951
RightToeBase 12.546921 -0.000000 -0.000000
LeftUpLeg -33.239578 2.816516 -1.939395
LeftLeg 120.785128 -0.000000 -0.000000
LeftFoot 17.045550 9.736044 -31.406743
LeftToeBase 1.128558 -0.000000 -0.000000
Spine 21.206347 -4.941798 -3.721092
RightShoulder -0.445241 -29.830523 -9.994784
RightArm 21.282632 -18.735493 61.330789
RightForeArm 4.503235 -0.000000 43.466155
RightHand -0.904184 -0.000000 -2.060565
RightHandThumb1 -24.326973 -0.000000 -32.862282
LeftShoulder -20.475060 30.151752 4.386351
LeftArm 60.836491 -33.600733 -62.203717
LeftForeArm 35.316920 -0.000000 52.477899
LeftHand -17.278317 -0.000000 -27.486200
LeftHandThumb1 -26.253704 0.000000 33.147579
Head 17.855457 19.495584 -3.568900
284
root 1.469495 37.285062 5.840296 -15.380480 -6.908761 6.448914
RightUpLeg 20.658081 -0.686377 -0.986219
RightLeg -1.701815 -0.000000 0.000000
RightFoot -14.093046 -18.815357 10.500796
RightToeBase 12.544993 -0.000000 -0.000000
LeftUpLeg -33.113592 2.640982 -1.915848
LeftLeg 119.684732 -0.000000 -0.000000
LeftFoot 16.270229 9.653480 -31.294390
LeftToeBase 1.118728 -0.000000 -0.000000
Spine 21.138598 -4.953536 -3.715931
RightShoulder -0.411159 -29.827423 -10.047691
RightArm 21.365735 -18.946570 61.133082
RightForeArm 4.528808 -0.000000 43.510109
RightHand -0.946996 0.000000 -1.935652
RightHandThumb1 -24.326973 -0.000000 -32.862282
LeftShoulder -20.509498 30.194084 4.298606
LeftArm 60.755404 -33.670832 -62.187762
LeftForeArm 35.326356 -0.000000 52.518661
LeftHand -17.289628 -0.000000 -27.484846
LeftHandThumb1 -26.253704 0.000000 33.147579
Head 17.837698 19.673466 -3.712679
285
root 1.472535 37.285537 5.845867 -15.340872 -6.983149 6.462850
RightUpLeg 20.601397 -0.632148 -1.004024
RightLeg -1.673584 -0.000000 0.000000
RightFoot -14.077287 -18.705211 10.475405
RightToeBase 12.546068 -0.000000 -0.000000
LeftUpLeg -33.010388 2.464626 -1.873990
LeftLeg 118.483125 -0.000000 -0.000000
LeftFoot 15.453235 9.602297 -30.946712
LeftToeBase 0.666079 -0.000000 -0.000000
Spine 21.075176 -4.982418 -3.684464
RightShoulder -0.377188 -29.812212 -10.113862
RightArm 21.463826 -19.192825 60.896409
RightForeArm 4.586053 -0.000000 43.578771
RightHand -1.003433 -0.000000 -1.725528
RightHandThumb1 -24.326973 -0.000000 -32.862282
LeftShoulder -20.526485 30.247958 4.227550
LeftArm 60.674586 -33.759571 -62.228558
LeftForeArm 35.342955 0.000000 52.565971
LeftHand -17.342683 -0.000000 -27.455416
LeftHandThumb1 -26.253704 0.000000 33.147579
Head 17.781021 19.852842 -3.901070
286
root 1.473122 37.287185 5.850138 -15.299051 -7.067970 6.426074
RightUpLeg 20.648704 -0.269452 -0.849794
RightLeg -1.853921 -0.000000 0.000000
RightFoot -13.990247 -18.930837 10.560320
RightToeBase 12.618124 -0.000000 -0.000000
LeftUpLeg -32.892422 2.243886 -1.795484
LeftLeg 117.173591 -0.000000 -0.000000
LeftFoot 14.427715 9.580040 -30.479379
LeftToeBase 0.546390 -0.000000 -0.000000
Spine 21.018464 -5.004054 -3.591524
RightShoulder -0.381740 -29.830495 -10.142773
RightArm 21.624094 -19.408124 60.585043
RightForeArm 4.599194 -0.000000 43.661018
RightHand -1.094801 -0.000000 -1.434735
RightHandThumb1 -24.326973 -0.000000 -32.862282
LeftShoulder -20.559720 30.269897 4.131111
LeftArm 60.608446 -33.819067 -62.249827
LeftForeArm 35.332692 -0.000000 52.613105
LeftHand -17.390179 -0.000000 -27.429443
LeftHandThumb1 -26.253704 0.000000 33.147579
Head 17.733131 20.017455 -4.063892
287
root 1.477681 37.287558 5.853150 -15.241559 -7.142414 6.410715
RightUpLeg 20.603060 -0.116435 -0.806527
RightLeg -1.881783 -0.000000 0.000000
RightFoot -13.960286 -18.918097 10.593592
RightToeBase 12.637681 -0.000000 -0.000000
LeftUpLeg -32.796460 1.967099 -1.751226
LeftLeg 115.798856 -0.000000 -0.000000
LeftFoot 13.291576 9.633226 -30.323777
LeftToeBase 0.228942 -0.000000 -0.000000
Spine 20.942491 -5.028402 -3.513668
RightShoulder -0.384184 -29.842652 -10.178956
RightArm 21.781844 -19.627748 60.268134
RightForeArm 4.620106 0.000000 43.753369
RightHand -1.151031 0.000000 -1.131192
RightHandThumb1 -24.326973 -0.000000 -32.862282
LeftShoulder -20.622901 30.305952 4.002934
LeftArm 60.581769 -33.858852 -62.235704
LeftForeArm 35.208601 0.000000 52.617470
LeftHand -17.589920 -0.000000 -27.333605
LeftHandThumb1 -26.253704 0.000000 33.147579
Head 17.667121 20.170323 -4.250205
